<?xml version="1.0" encoding="UTF-8"?>
<svg xmlns="http://www.w3.org/2000/svg" xmlns:xlink="http://www.w3.org/1999/xlink" viewBox="0 0 48 48" width="48px" height="48px">
<g id="surface16507253">
<path style=" stroke:none;fill-rule:nonzero;fill:rgb(42.745098%,92.54902%,72.549021%);fill-opacity:1;" d="M 40.585938 23.585938 L 24.414062 7.414062 C 23.632812 6.632812 22.367188 6.632812 21.585938 7.414062 L 18.203125 10.789062 L 21.710938 14.296875 C 22.101562 14.117188 22.539062 14 23 14 C 24.65625 14 26 15.34375 26 17 C 26 17.460938 25.882812 17.890625 25.695312 18.289062 L 29.710938 22.296875 C 30.101562 22.117188 30.539062 22 31 22 C 32.65625 22 34 23.34375 34 25 C 34 26.65625 32.65625 28 31 28 C 29.34375 28 28 26.65625 28 25 C 28 24.539062 28.109375 24.109375 28.296875 23.710938 L 24.28125 19.703125 C 24.195312 19.742188 24.09375 19.78125 24 19.8125 L 24 30.1875 C 25.15625 30.601562 26 31.695312 26 33 C 26 34.65625 24.65625 36 23 36 C 21.34375 36 20 34.65625 20 33 C 20 31.695312 20.835938 30.59375 22 30.1875 L 22 19.8125 C 20.835938 19.398438 20 18.304688 20 17 C 20 16.539062 20.109375 16.109375 20.296875 15.710938 L 16.789062 12.210938 L 5.414062 23.585938 C 4.632812 24.367188 4.632812 25.632812 5.414062 26.414062 L 21.585938 42.585938 C 22.367188 43.367188 23.632812 43.367188 24.414062 42.585938 L 40.585938 26.414062 C 41.367188 25.632812 41.367188 24.367188 40.585938 23.585938 Z M 40.585938 23.585938 "/>
</g>
</svg>
